<mxfile host="app.diagrams.net" modified="2022-10-03T10:16:41.239Z" agent="5.0 (Windows NT 10.0; Win64; x64) AppleWebKit/537.36 (KHTML, like Gecko) Chrome/105.0.0.0 Safari/537.36 Edg/105.0.1343.53" etag="N4pBCII7I7aZTZ5Mp2dT" version="20.3.7" type="github">
  <diagram id="bfgBtSmYc3XGGk-cx81R" name="Page-1">
    <mxGraphModel dx="1167" dy="619" grid="1" gridSize="10" guides="1" tooltips="1" connect="1" arrows="1" fold="1" page="1" pageScale="1" pageWidth="850" pageHeight="1100" math="0" shadow="0">
      <root>
        <mxCell id="0" />
        <mxCell id="1" parent="0" />
        <mxCell id="2NKQgYieQlxQsSznahe5-5" value="" style="rounded=0;whiteSpace=wrap;html=1;fillColor=none;" parent="1" vertex="1">
          <mxGeometry width="280" height="120" as="geometry" />
        </mxCell>
        <mxCell id="2NKQgYieQlxQsSznahe5-6" value="Box template" style="text;html=1;strokeColor=none;fillColor=none;align=center;verticalAlign=middle;whiteSpace=wrap;rounded=0;" parent="1" vertex="1">
          <mxGeometry width="60" height="30" as="geometry" />
        </mxCell>
        <mxCell id="2NKQgYieQlxQsSznahe5-47" value="" style="group" parent="1" vertex="1" connectable="0">
          <mxGeometry x="30" y="40" width="220" height="60" as="geometry" />
        </mxCell>
        <mxCell id="2NKQgYieQlxQsSznahe5-3" value="" style="endArrow=classic;html=1;rounded=0;exitX=1;exitY=0.5;exitDx=0;exitDy=0;edgeStyle=orthogonalEdgeStyle;" parent="2NKQgYieQlxQsSznahe5-47" source="2NKQgYieQlxQsSznahe5-40" edge="1">
          <mxGeometry width="50" height="50" relative="1" as="geometry">
            <mxPoint x="190" y="60" as="sourcePoint" />
            <mxPoint x="220" y="30" as="targetPoint" />
          </mxGeometry>
        </mxCell>
        <mxCell id="2NKQgYieQlxQsSznahe5-55" value="Text" style="edgeLabel;html=1;align=center;verticalAlign=middle;resizable=0;points=[];" parent="2NKQgYieQlxQsSznahe5-3" vertex="1" connectable="0">
          <mxGeometry x="-0.2651" y="1" relative="1" as="geometry">
            <mxPoint y="-9" as="offset" />
          </mxGeometry>
        </mxCell>
        <mxCell id="2NKQgYieQlxQsSznahe5-40" value="" style="rounded=0;whiteSpace=wrap;html=1;" parent="2NKQgYieQlxQsSznahe5-47" vertex="1">
          <mxGeometry x="60" width="100" height="60" as="geometry" />
        </mxCell>
        <mxCell id="2NKQgYieQlxQsSznahe5-41" value="" style="endArrow=classic;html=1;rounded=0;entryX=0;entryY=0.5;entryDx=0;entryDy=0;edgeStyle=orthogonalEdgeStyle;" parent="2NKQgYieQlxQsSznahe5-47" target="2NKQgYieQlxQsSznahe5-40" edge="1">
          <mxGeometry width="50" height="50" relative="1" as="geometry">
            <mxPoint y="30" as="sourcePoint" />
            <mxPoint x="30" y="30" as="targetPoint" />
          </mxGeometry>
        </mxCell>
        <mxCell id="2NKQgYieQlxQsSznahe5-54" value="Text" style="edgeLabel;html=1;align=center;verticalAlign=middle;resizable=0;points=[];" parent="2NKQgYieQlxQsSznahe5-41" vertex="1" connectable="0">
          <mxGeometry x="-0.1063" y="2" relative="1" as="geometry">
            <mxPoint y="-8" as="offset" />
          </mxGeometry>
        </mxCell>
        <mxCell id="2NKQgYieQlxQsSznahe5-81" value="" style="group" parent="1" vertex="1" connectable="0">
          <mxGeometry x="330" y="540" width="220" height="60" as="geometry" />
        </mxCell>
        <mxCell id="2NKQgYieQlxQsSznahe5-82" value="" style="endArrow=classic;html=1;rounded=0;exitX=1;exitY=0.5;exitDx=0;exitDy=0;edgeStyle=orthogonalEdgeStyle;" parent="2NKQgYieQlxQsSznahe5-81" source="2NKQgYieQlxQsSznahe5-84" edge="1">
          <mxGeometry width="50" height="50" relative="1" as="geometry">
            <mxPoint x="190" y="60" as="sourcePoint" />
            <mxPoint x="220" y="30" as="targetPoint" />
          </mxGeometry>
        </mxCell>
        <mxCell id="2NKQgYieQlxQsSznahe5-83" value="Pconv" style="edgeLabel;html=1;align=center;verticalAlign=middle;resizable=0;points=[];" parent="2NKQgYieQlxQsSznahe5-82" vertex="1" connectable="0">
          <mxGeometry x="-0.2651" y="1" relative="1" as="geometry">
            <mxPoint y="-9" as="offset" />
          </mxGeometry>
        </mxCell>
        <mxCell id="2NKQgYieQlxQsSznahe5-84" value="cnvUn&lt;br&gt;(converter direct feedthrough)" style="rounded=0;whiteSpace=wrap;html=1;" parent="2NKQgYieQlxQsSznahe5-81" vertex="1">
          <mxGeometry x="60" width="100" height="60" as="geometry" />
        </mxCell>
        <mxCell id="2NKQgYieQlxQsSznahe5-85" value="" style="endArrow=classic;html=1;rounded=0;entryX=0;entryY=0.5;entryDx=0;entryDy=0;edgeStyle=orthogonalEdgeStyle;" parent="2NKQgYieQlxQsSznahe5-81" target="2NKQgYieQlxQsSznahe5-84" edge="1">
          <mxGeometry width="50" height="50" relative="1" as="geometry">
            <mxPoint y="30" as="sourcePoint" />
            <mxPoint x="30" y="30" as="targetPoint" />
          </mxGeometry>
        </mxCell>
        <mxCell id="2NKQgYieQlxQsSznahe5-86" value="Pref" style="edgeLabel;html=1;align=center;verticalAlign=middle;resizable=0;points=[];" parent="2NKQgYieQlxQsSznahe5-85" vertex="1" connectable="0">
          <mxGeometry x="-0.1063" y="2" relative="1" as="geometry">
            <mxPoint y="-8" as="offset" />
          </mxGeometry>
        </mxCell>
        <mxCell id="2NKQgYieQlxQsSznahe5-105" value="" style="group" parent="1" vertex="1" connectable="0">
          <mxGeometry x="20" y="570" width="220" height="60" as="geometry" />
        </mxCell>
        <mxCell id="2NKQgYieQlxQsSznahe5-106" value="" style="endArrow=classic;html=1;rounded=0;exitX=1;exitY=0.5;exitDx=0;exitDy=0;edgeStyle=orthogonalEdgeStyle;" parent="2NKQgYieQlxQsSznahe5-105" source="2NKQgYieQlxQsSznahe5-108" edge="1">
          <mxGeometry width="50" height="50" relative="1" as="geometry">
            <mxPoint x="190" y="60" as="sourcePoint" />
            <mxPoint x="220" y="30" as="targetPoint" />
          </mxGeometry>
        </mxCell>
        <mxCell id="2NKQgYieQlxQsSznahe5-107" value="Trot" style="edgeLabel;html=1;align=center;verticalAlign=middle;resizable=0;points=[];" parent="2NKQgYieQlxQsSznahe5-106" vertex="1" connectable="0">
          <mxGeometry x="-0.2651" y="1" relative="1" as="geometry">
            <mxPoint y="-9" as="offset" />
          </mxGeometry>
        </mxCell>
        <mxCell id="2NKQgYieQlxQsSznahe5-108" value="aeroThr" style="rounded=0;whiteSpace=wrap;html=1;" parent="2NKQgYieQlxQsSznahe5-105" vertex="1">
          <mxGeometry x="60" width="100" height="60" as="geometry" />
        </mxCell>
        <mxCell id="2NKQgYieQlxQsSznahe5-109" value="" style="endArrow=classic;html=1;rounded=0;entryX=0;entryY=0.25;entryDx=0;entryDy=0;edgeStyle=orthogonalEdgeStyle;" parent="2NKQgYieQlxQsSznahe5-105" target="2NKQgYieQlxQsSznahe5-108" edge="1">
          <mxGeometry width="50" height="50" relative="1" as="geometry">
            <mxPoint y="15" as="sourcePoint" />
            <mxPoint x="30" y="30" as="targetPoint" />
          </mxGeometry>
        </mxCell>
        <mxCell id="2NKQgYieQlxQsSznahe5-110" value="th" style="edgeLabel;html=1;align=center;verticalAlign=middle;resizable=0;points=[];" parent="2NKQgYieQlxQsSznahe5-109" vertex="1" connectable="0">
          <mxGeometry x="-0.1063" y="2" relative="1" as="geometry">
            <mxPoint y="-8" as="offset" />
          </mxGeometry>
        </mxCell>
        <mxCell id="ZojpfDY3j0kffaaoSL6z-208" value="" style="endArrow=classic;html=1;rounded=0;entryX=0;entryY=0.5;entryDx=0;entryDy=0;edgeStyle=orthogonalEdgeStyle;" edge="1" parent="2NKQgYieQlxQsSznahe5-105" target="2NKQgYieQlxQsSznahe5-108">
          <mxGeometry width="50" height="50" relative="1" as="geometry">
            <mxPoint y="30" as="sourcePoint" />
            <mxPoint x="50.00000000000023" y="50" as="targetPoint" />
          </mxGeometry>
        </mxCell>
        <mxCell id="ZojpfDY3j0kffaaoSL6z-209" value="v" style="edgeLabel;html=1;align=center;verticalAlign=middle;resizable=0;points=[];" vertex="1" connectable="0" parent="ZojpfDY3j0kffaaoSL6z-208">
          <mxGeometry x="-0.1063" y="2" relative="1" as="geometry">
            <mxPoint y="-8" as="offset" />
          </mxGeometry>
        </mxCell>
        <mxCell id="2NKQgYieQlxQsSznahe5-111" value="&amp;nbsp; LEGEND&lt;br&gt;&lt;br&gt;&lt;br&gt;&lt;br&gt;&lt;br&gt;&lt;br&gt;&lt;br&gt;&lt;br&gt;&lt;br&gt;" style="rounded=0;whiteSpace=wrap;html=1;fillColor=none;align=left;" parent="1" vertex="1">
          <mxGeometry x="380" width="230" height="140" as="geometry" />
        </mxCell>
        <mxCell id="2NKQgYieQlxQsSznahe5-112" value="&lt;div style=&quot;&quot;&gt;&lt;span style=&quot;font-size: 10px; background-color: initial;&quot;&gt;Trot: Rotor thrust&lt;/span&gt;&lt;/div&gt;&lt;div style=&quot;&quot;&gt;&lt;span style=&quot;font-size: 10px;&quot;&gt;Mrot: Rotor torque&lt;/span&gt;&lt;/div&gt;&lt;font style=&quot;font-size: 10px;&quot;&gt;&lt;div style=&quot;&quot;&gt;&lt;span style=&quot;background-color: initial;&quot;&gt;th: Theta&lt;/span&gt;&lt;/div&gt;&lt;span style=&quot;&quot;&gt;&lt;div style=&quot;&quot;&gt;&lt;span style=&quot;background-color: initial;&quot;&gt;v: Wind - experienced by rotor&lt;/span&gt;&lt;/div&gt;&lt;/span&gt;&lt;/font&gt;&lt;div style=&quot;font-size: 10px;&quot;&gt;&lt;span style=&quot;background-color: initial;&quot;&gt;&lt;font style=&quot;font-size: 10px;&quot;&gt;W: Rotor speed&lt;/font&gt;&lt;/span&gt;&lt;/div&gt;&lt;div style=&quot;font-size: 10px;&quot;&gt;&lt;font style=&quot;font-size: 10px;&quot;&gt;py + vy + ay: Pos, vel, acc in y-direction (fore-aft)&lt;/font&gt;&lt;/div&gt;&lt;div style=&quot;font-size: 10px;&quot;&gt;&lt;span style=&quot;background-color: initial;&quot;&gt;&lt;font style=&quot;font-size: 10px;&quot;&gt;pWy, vWy, aWy: pos, vel, acc tower rotation around y-axis [rad, rad/s, rad/s^2]&lt;/font&gt;&lt;/span&gt;&lt;/div&gt;" style="text;html=1;strokeColor=none;fillColor=none;align=left;verticalAlign=middle;whiteSpace=wrap;rounded=0;fontSize=9;" parent="1" vertex="1">
          <mxGeometry x="390" y="20" width="210" height="120" as="geometry" />
        </mxCell>
        <mxCell id="2NKQgYieQlxQsSznahe5-62" value="" style="group" parent="1" vertex="1" connectable="0">
          <mxGeometry x="20" y="170" width="220" height="60" as="geometry" />
        </mxCell>
        <mxCell id="2NKQgYieQlxQsSznahe5-63" value="" style="endArrow=classic;html=1;rounded=0;exitX=1;exitY=0.5;exitDx=0;exitDy=0;edgeStyle=orthogonalEdgeStyle;" parent="2NKQgYieQlxQsSznahe5-62" source="2NKQgYieQlxQsSznahe5-65" edge="1">
          <mxGeometry width="50" height="50" relative="1" as="geometry">
            <mxPoint x="190" y="60" as="sourcePoint" />
            <mxPoint x="220" y="30" as="targetPoint" />
          </mxGeometry>
        </mxCell>
        <mxCell id="2NKQgYieQlxQsSznahe5-64" value="thRef" style="edgeLabel;html=1;align=center;verticalAlign=middle;resizable=0;points=[];" parent="2NKQgYieQlxQsSznahe5-63" vertex="1" connectable="0">
          <mxGeometry x="-0.2651" y="1" relative="1" as="geometry">
            <mxPoint y="-9" as="offset" />
          </mxGeometry>
        </mxCell>
        <mxCell id="2NKQgYieQlxQsSznahe5-65" value="FLC" style="rounded=0;whiteSpace=wrap;html=1;" parent="2NKQgYieQlxQsSznahe5-62" vertex="1">
          <mxGeometry x="60" width="100" height="60" as="geometry" />
        </mxCell>
        <mxCell id="2NKQgYieQlxQsSznahe5-66" value="" style="endArrow=classic;html=1;rounded=0;entryX=0;entryY=0.5;entryDx=0;entryDy=0;edgeStyle=orthogonalEdgeStyle;" parent="2NKQgYieQlxQsSznahe5-62" target="2NKQgYieQlxQsSznahe5-65" edge="1">
          <mxGeometry width="50" height="50" relative="1" as="geometry">
            <mxPoint y="30" as="sourcePoint" />
            <mxPoint x="30" y="30" as="targetPoint" />
          </mxGeometry>
        </mxCell>
        <mxCell id="2NKQgYieQlxQsSznahe5-67" value="e" style="edgeLabel;html=1;align=center;verticalAlign=middle;resizable=0;points=[];" parent="2NKQgYieQlxQsSznahe5-66" vertex="1" connectable="0">
          <mxGeometry x="-0.1063" y="2" relative="1" as="geometry">
            <mxPoint y="-8" as="offset" />
          </mxGeometry>
        </mxCell>
        <mxCell id="2NKQgYieQlxQsSznahe5-68" value="" style="group" parent="1" vertex="1" connectable="0">
          <mxGeometry x="20" y="240" width="220" height="60" as="geometry" />
        </mxCell>
        <mxCell id="2NKQgYieQlxQsSznahe5-69" value="" style="endArrow=classic;html=1;rounded=0;exitX=1;exitY=0.5;exitDx=0;exitDy=0;edgeStyle=orthogonalEdgeStyle;" parent="2NKQgYieQlxQsSznahe5-68" source="2NKQgYieQlxQsSznahe5-71" edge="1">
          <mxGeometry width="50" height="50" relative="1" as="geometry">
            <mxPoint x="190" y="60" as="sourcePoint" />
            <mxPoint x="220" y="30" as="targetPoint" />
          </mxGeometry>
        </mxCell>
        <mxCell id="2NKQgYieQlxQsSznahe5-70" value="Pref" style="edgeLabel;html=1;align=center;verticalAlign=middle;resizable=0;points=[];" parent="2NKQgYieQlxQsSznahe5-69" vertex="1" connectable="0">
          <mxGeometry x="-0.2651" y="1" relative="1" as="geometry">
            <mxPoint y="-9" as="offset" />
          </mxGeometry>
        </mxCell>
        <mxCell id="2NKQgYieQlxQsSznahe5-71" value="PLC" style="rounded=0;whiteSpace=wrap;html=1;" parent="2NKQgYieQlxQsSznahe5-68" vertex="1">
          <mxGeometry x="60" width="100" height="60" as="geometry" />
        </mxCell>
        <mxCell id="2NKQgYieQlxQsSznahe5-72" value="" style="endArrow=classic;html=1;rounded=0;entryX=0;entryY=0.5;entryDx=0;entryDy=0;edgeStyle=orthogonalEdgeStyle;" parent="2NKQgYieQlxQsSznahe5-68" target="2NKQgYieQlxQsSznahe5-71" edge="1">
          <mxGeometry width="50" height="50" relative="1" as="geometry">
            <mxPoint y="30" as="sourcePoint" />
            <mxPoint x="30" y="30" as="targetPoint" />
          </mxGeometry>
        </mxCell>
        <mxCell id="2NKQgYieQlxQsSznahe5-73" value="e" style="edgeLabel;html=1;align=center;verticalAlign=middle;resizable=0;points=[];" parent="2NKQgYieQlxQsSznahe5-72" vertex="1" connectable="0">
          <mxGeometry x="-0.1063" y="2" relative="1" as="geometry">
            <mxPoint y="-8" as="offset" />
          </mxGeometry>
        </mxCell>
        <mxCell id="2NKQgYieQlxQsSznahe5-147" value="" style="group" parent="1" vertex="1" connectable="0">
          <mxGeometry x="20" y="400" width="220" height="60" as="geometry" />
        </mxCell>
        <mxCell id="2NKQgYieQlxQsSznahe5-148" value="" style="endArrow=classic;html=1;rounded=0;exitX=1;exitY=0.5;exitDx=0;exitDy=0;edgeStyle=orthogonalEdgeStyle;" parent="2NKQgYieQlxQsSznahe5-147" source="2NKQgYieQlxQsSznahe5-150" edge="1">
          <mxGeometry width="50" height="50" relative="1" as="geometry">
            <mxPoint x="190" y="60" as="sourcePoint" />
            <mxPoint x="220" y="30" as="targetPoint" />
          </mxGeometry>
        </mxCell>
        <mxCell id="2NKQgYieQlxQsSznahe5-149" value="th" style="edgeLabel;html=1;align=center;verticalAlign=middle;resizable=0;points=[];" parent="2NKQgYieQlxQsSznahe5-148" vertex="1" connectable="0">
          <mxGeometry x="-0.2651" y="1" relative="1" as="geometry">
            <mxPoint y="-9" as="offset" />
          </mxGeometry>
        </mxCell>
        <mxCell id="2NKQgYieQlxQsSznahe5-150" value="pit&lt;br&gt;(Pitch controller)" style="rounded=0;whiteSpace=wrap;html=1;" parent="2NKQgYieQlxQsSznahe5-147" vertex="1">
          <mxGeometry x="60" width="100" height="60" as="geometry" />
        </mxCell>
        <mxCell id="2NKQgYieQlxQsSznahe5-151" value="" style="endArrow=classic;html=1;rounded=0;entryX=0;entryY=0.25;entryDx=0;entryDy=0;edgeStyle=orthogonalEdgeStyle;" parent="2NKQgYieQlxQsSznahe5-147" target="2NKQgYieQlxQsSznahe5-150" edge="1">
          <mxGeometry width="50" height="50" relative="1" as="geometry">
            <mxPoint y="15" as="sourcePoint" />
            <mxPoint x="30" y="30" as="targetPoint" />
          </mxGeometry>
        </mxCell>
        <mxCell id="2NKQgYieQlxQsSznahe5-152" value="thRef" style="edgeLabel;html=1;align=center;verticalAlign=middle;resizable=0;points=[];" parent="2NKQgYieQlxQsSznahe5-151" vertex="1" connectable="0">
          <mxGeometry x="-0.1063" y="2" relative="1" as="geometry">
            <mxPoint x="-7" y="-8" as="offset" />
          </mxGeometry>
        </mxCell>
        <mxCell id="ZojpfDY3j0kffaaoSL6z-186" value="" style="endArrow=classic;html=1;rounded=0;entryX=0;entryY=0.75;entryDx=0;entryDy=0;edgeStyle=orthogonalEdgeStyle;" edge="1" parent="2NKQgYieQlxQsSznahe5-147" target="2NKQgYieQlxQsSznahe5-150">
          <mxGeometry width="50" height="50" relative="1" as="geometry">
            <mxPoint y="45" as="sourcePoint" />
            <mxPoint x="50" y="59.60000000000002" as="targetPoint" />
          </mxGeometry>
        </mxCell>
        <mxCell id="ZojpfDY3j0kffaaoSL6z-187" value="thFatd" style="edgeLabel;html=1;align=center;verticalAlign=middle;resizable=0;points=[];" vertex="1" connectable="0" parent="ZojpfDY3j0kffaaoSL6z-186">
          <mxGeometry x="-0.1063" y="2" relative="1" as="geometry">
            <mxPoint x="-7" y="-8" as="offset" />
          </mxGeometry>
        </mxCell>
        <mxCell id="2NKQgYieQlxQsSznahe5-142" value="" style="endArrow=classic;html=1;rounded=0;exitX=1;exitY=0.5;exitDx=0;exitDy=0;edgeStyle=orthogonalEdgeStyle;" parent="1" source="2NKQgYieQlxQsSznahe5-144" edge="1">
          <mxGeometry width="50" height="50" relative="1" as="geometry">
            <mxPoint x="210" y="380" as="sourcePoint" />
            <mxPoint x="240" y="350" as="targetPoint" />
          </mxGeometry>
        </mxCell>
        <mxCell id="2NKQgYieQlxQsSznahe5-143" value="thFatd" style="edgeLabel;html=1;align=center;verticalAlign=middle;resizable=0;points=[];" parent="2NKQgYieQlxQsSznahe5-142" vertex="1" connectable="0">
          <mxGeometry x="-0.2651" y="1" relative="1" as="geometry">
            <mxPoint y="-9" as="offset" />
          </mxGeometry>
        </mxCell>
        <mxCell id="2NKQgYieQlxQsSznahe5-144" value="FATD" style="rounded=0;whiteSpace=wrap;html=1;" parent="1" vertex="1">
          <mxGeometry x="80" y="320" width="100" height="60" as="geometry" />
        </mxCell>
        <mxCell id="2NKQgYieQlxQsSznahe5-145" value="" style="endArrow=classic;html=1;rounded=0;entryX=0;entryY=0.25;entryDx=0;entryDy=0;edgeStyle=orthogonalEdgeStyle;" parent="1" target="2NKQgYieQlxQsSznahe5-144" edge="1">
          <mxGeometry width="50" height="50" relative="1" as="geometry">
            <mxPoint x="20" y="335" as="sourcePoint" />
            <mxPoint x="50" y="350" as="targetPoint" />
          </mxGeometry>
        </mxCell>
        <mxCell id="2NKQgYieQlxQsSznahe5-146" value="py" style="edgeLabel;html=1;align=center;verticalAlign=middle;resizable=0;points=[];" parent="2NKQgYieQlxQsSznahe5-145" vertex="1" connectable="0">
          <mxGeometry x="-0.1063" y="2" relative="1" as="geometry">
            <mxPoint y="-8" as="offset" />
          </mxGeometry>
        </mxCell>
        <mxCell id="ZojpfDY3j0kffaaoSL6z-183" value="" style="endArrow=classic;html=1;rounded=0;entryX=0;entryY=0.75;entryDx=0;entryDy=0;edgeStyle=orthogonalEdgeStyle;" edge="1" parent="1" target="2NKQgYieQlxQsSznahe5-144">
          <mxGeometry width="50" height="50" relative="1" as="geometry">
            <mxPoint x="20" y="365" as="sourcePoint" />
            <mxPoint x="70" y="360" as="targetPoint" />
          </mxGeometry>
        </mxCell>
        <mxCell id="ZojpfDY3j0kffaaoSL6z-184" value="vy" style="edgeLabel;html=1;align=center;verticalAlign=middle;resizable=0;points=[];" vertex="1" connectable="0" parent="ZojpfDY3j0kffaaoSL6z-183">
          <mxGeometry x="-0.1063" y="2" relative="1" as="geometry">
            <mxPoint y="-8" as="offset" />
          </mxGeometry>
        </mxCell>
        <mxCell id="2NKQgYieQlxQsSznahe5-88" value="" style="endArrow=classic;html=1;rounded=0;exitX=1;exitY=0.5;exitDx=0;exitDy=0;edgeStyle=orthogonalEdgeStyle;" parent="1" source="2NKQgYieQlxQsSznahe5-90" edge="1">
          <mxGeometry width="50" height="50" relative="1" as="geometry">
            <mxPoint x="530" y="240" as="sourcePoint" />
            <mxPoint x="560" y="210" as="targetPoint" />
          </mxGeometry>
        </mxCell>
        <mxCell id="2NKQgYieQlxQsSznahe5-89" value="v" style="edgeLabel;html=1;align=center;verticalAlign=middle;resizable=0;points=[];" parent="2NKQgYieQlxQsSznahe5-88" vertex="1" connectable="0">
          <mxGeometry x="-0.2651" y="1" relative="1" as="geometry">
            <mxPoint y="-9" as="offset" />
          </mxGeometry>
        </mxCell>
        <mxCell id="2NKQgYieQlxQsSznahe5-90" value="rotWind" style="rounded=0;whiteSpace=wrap;html=1;" parent="1" vertex="1">
          <mxGeometry x="400" y="180" width="100" height="60" as="geometry" />
        </mxCell>
        <mxCell id="2NKQgYieQlxQsSznahe5-91" value="" style="endArrow=classic;html=1;rounded=0;entryX=0;entryY=0.25;entryDx=0;entryDy=0;edgeStyle=orthogonalEdgeStyle;" parent="1" target="2NKQgYieQlxQsSznahe5-90" edge="1">
          <mxGeometry width="50" height="50" relative="1" as="geometry">
            <mxPoint x="340" y="195" as="sourcePoint" />
            <mxPoint x="370" y="210" as="targetPoint" />
          </mxGeometry>
        </mxCell>
        <mxCell id="2NKQgYieQlxQsSznahe5-92" value="vfree" style="edgeLabel;html=1;align=center;verticalAlign=middle;resizable=0;points=[];" parent="2NKQgYieQlxQsSznahe5-91" vertex="1" connectable="0">
          <mxGeometry x="-0.1063" y="2" relative="1" as="geometry">
            <mxPoint y="-8" as="offset" />
          </mxGeometry>
        </mxCell>
        <mxCell id="ZojpfDY3j0kffaaoSL6z-190" value="" style="endArrow=classic;html=1;rounded=0;entryX=0;entryY=0.75;entryDx=0;entryDy=0;edgeStyle=orthogonalEdgeStyle;" edge="1" parent="1" target="2NKQgYieQlxQsSznahe5-90">
          <mxGeometry width="50" height="50" relative="1" as="geometry">
            <mxPoint x="340" y="225" as="sourcePoint" />
            <mxPoint x="410" y="205" as="targetPoint" />
          </mxGeometry>
        </mxCell>
        <mxCell id="ZojpfDY3j0kffaaoSL6z-191" value="vy" style="edgeLabel;html=1;align=center;verticalAlign=middle;resizable=0;points=[];" vertex="1" connectable="0" parent="ZojpfDY3j0kffaaoSL6z-190">
          <mxGeometry x="-0.1063" y="2" relative="1" as="geometry">
            <mxPoint y="-8" as="offset" />
          </mxGeometry>
        </mxCell>
        <mxCell id="2NKQgYieQlxQsSznahe5-100" value="" style="endArrow=classic;html=1;rounded=0;exitX=1;exitY=0.25;exitDx=0;exitDy=0;edgeStyle=orthogonalEdgeStyle;" parent="1" source="2NKQgYieQlxQsSznahe5-102" edge="1">
          <mxGeometry width="50" height="50" relative="1" as="geometry">
            <mxPoint x="530" y="440" as="sourcePoint" />
            <mxPoint x="560" y="395" as="targetPoint" />
          </mxGeometry>
        </mxCell>
        <mxCell id="2NKQgYieQlxQsSznahe5-101" value="pWy" style="edgeLabel;html=1;align=center;verticalAlign=middle;resizable=0;points=[];" parent="2NKQgYieQlxQsSznahe5-100" vertex="1" connectable="0">
          <mxGeometry x="-0.2651" y="1" relative="1" as="geometry">
            <mxPoint x="8" y="-9" as="offset" />
          </mxGeometry>
        </mxCell>
        <mxCell id="2NKQgYieQlxQsSznahe5-102" value="towSprMassSs&lt;br&gt;(side-side)" style="rounded=0;whiteSpace=wrap;html=1;" parent="1" vertex="1">
          <mxGeometry x="400" y="380" width="100" height="60" as="geometry" />
        </mxCell>
        <mxCell id="2NKQgYieQlxQsSznahe5-103" value="" style="endArrow=classic;html=1;rounded=0;entryX=0;entryY=0.25;entryDx=0;entryDy=0;edgeStyle=orthogonalEdgeStyle;" parent="1" target="2NKQgYieQlxQsSznahe5-102" edge="1">
          <mxGeometry width="50" height="50" relative="1" as="geometry">
            <mxPoint x="340" y="395" as="sourcePoint" />
            <mxPoint x="370" y="410" as="targetPoint" />
          </mxGeometry>
        </mxCell>
        <mxCell id="2NKQgYieQlxQsSznahe5-104" value="Mrot" style="edgeLabel;html=1;align=center;verticalAlign=middle;resizable=0;points=[];" parent="2NKQgYieQlxQsSznahe5-103" vertex="1" connectable="0">
          <mxGeometry x="-0.1063" y="2" relative="1" as="geometry">
            <mxPoint y="-8" as="offset" />
          </mxGeometry>
        </mxCell>
        <mxCell id="ZojpfDY3j0kffaaoSL6z-188" value="" style="endArrow=classic;html=1;rounded=0;entryX=0;entryY=0.75;entryDx=0;entryDy=0;edgeStyle=orthogonalEdgeStyle;" edge="1" parent="1" target="2NKQgYieQlxQsSznahe5-102">
          <mxGeometry width="50" height="50" relative="1" as="geometry">
            <mxPoint x="340" y="425" as="sourcePoint" />
            <mxPoint x="400" y="430" as="targetPoint" />
          </mxGeometry>
        </mxCell>
        <mxCell id="ZojpfDY3j0kffaaoSL6z-189" value="Mgen" style="edgeLabel;html=1;align=center;verticalAlign=middle;resizable=0;points=[];" vertex="1" connectable="0" parent="ZojpfDY3j0kffaaoSL6z-188">
          <mxGeometry x="-0.1063" y="2" relative="1" as="geometry">
            <mxPoint y="-8" as="offset" />
          </mxGeometry>
        </mxCell>
        <mxCell id="ZojpfDY3j0kffaaoSL6z-192" value="" style="endArrow=classic;html=1;rounded=0;exitX=1;exitY=0.75;exitDx=0;exitDy=0;edgeStyle=orthogonalEdgeStyle;" edge="1" parent="1" source="2NKQgYieQlxQsSznahe5-102">
          <mxGeometry width="50" height="50" relative="1" as="geometry">
            <mxPoint x="510" y="405" as="sourcePoint" />
            <mxPoint x="560" y="425" as="targetPoint" />
          </mxGeometry>
        </mxCell>
        <mxCell id="ZojpfDY3j0kffaaoSL6z-193" value="vWy" style="edgeLabel;html=1;align=center;verticalAlign=middle;resizable=0;points=[];" vertex="1" connectable="0" parent="ZojpfDY3j0kffaaoSL6z-192">
          <mxGeometry x="-0.2651" y="1" relative="1" as="geometry">
            <mxPoint x="8" y="-9" as="offset" />
          </mxGeometry>
        </mxCell>
        <mxCell id="2NKQgYieQlxQsSznahe5-94" value="" style="endArrow=classic;html=1;rounded=0;exitX=1;exitY=0.25;exitDx=0;exitDy=0;edgeStyle=orthogonalEdgeStyle;" parent="1" source="2NKQgYieQlxQsSznahe5-96" edge="1">
          <mxGeometry width="50" height="50" relative="1" as="geometry">
            <mxPoint x="530" y="360" as="sourcePoint" />
            <mxPoint x="560" y="315" as="targetPoint" />
          </mxGeometry>
        </mxCell>
        <mxCell id="2NKQgYieQlxQsSznahe5-95" value="py" style="edgeLabel;html=1;align=center;verticalAlign=middle;resizable=0;points=[];" parent="2NKQgYieQlxQsSznahe5-94" vertex="1" connectable="0">
          <mxGeometry x="-0.2651" y="1" relative="1" as="geometry">
            <mxPoint x="8" y="-9" as="offset" />
          </mxGeometry>
        </mxCell>
        <mxCell id="2NKQgYieQlxQsSznahe5-96" value="towSprMassFa&lt;br&gt;Fore-aft" style="rounded=0;whiteSpace=wrap;html=1;" parent="1" vertex="1">
          <mxGeometry x="400" y="300" width="100" height="60" as="geometry" />
        </mxCell>
        <mxCell id="2NKQgYieQlxQsSznahe5-97" value="" style="endArrow=classic;html=1;rounded=0;entryX=0;entryY=0.5;entryDx=0;entryDy=0;edgeStyle=orthogonalEdgeStyle;" parent="1" target="2NKQgYieQlxQsSznahe5-96" edge="1">
          <mxGeometry width="50" height="50" relative="1" as="geometry">
            <mxPoint x="340" y="330" as="sourcePoint" />
            <mxPoint x="370" y="330" as="targetPoint" />
          </mxGeometry>
        </mxCell>
        <mxCell id="2NKQgYieQlxQsSznahe5-98" value="Trot" style="edgeLabel;html=1;align=center;verticalAlign=middle;resizable=0;points=[];" parent="2NKQgYieQlxQsSznahe5-97" vertex="1" connectable="0">
          <mxGeometry x="-0.1063" y="2" relative="1" as="geometry">
            <mxPoint y="-8" as="offset" />
          </mxGeometry>
        </mxCell>
        <mxCell id="ZojpfDY3j0kffaaoSL6z-194" value="" style="endArrow=classic;html=1;rounded=0;exitX=1;exitY=0.5;exitDx=0;exitDy=0;edgeStyle=orthogonalEdgeStyle;" edge="1" parent="1" source="2NKQgYieQlxQsSznahe5-96">
          <mxGeometry width="50" height="50" relative="1" as="geometry">
            <mxPoint x="510" y="325" as="sourcePoint" />
            <mxPoint x="560" y="330" as="targetPoint" />
          </mxGeometry>
        </mxCell>
        <mxCell id="ZojpfDY3j0kffaaoSL6z-195" value="vy" style="edgeLabel;html=1;align=center;verticalAlign=middle;resizable=0;points=[];" vertex="1" connectable="0" parent="ZojpfDY3j0kffaaoSL6z-194">
          <mxGeometry x="-0.2651" y="1" relative="1" as="geometry">
            <mxPoint x="8" y="-9" as="offset" />
          </mxGeometry>
        </mxCell>
        <mxCell id="ZojpfDY3j0kffaaoSL6z-196" value="" style="endArrow=classic;html=1;rounded=0;exitX=1;exitY=0.75;exitDx=0;exitDy=0;edgeStyle=orthogonalEdgeStyle;" edge="1" parent="1" source="2NKQgYieQlxQsSznahe5-96">
          <mxGeometry width="50" height="50" relative="1" as="geometry">
            <mxPoint x="510" y="340.0000000000001" as="sourcePoint" />
            <mxPoint x="560" y="345" as="targetPoint" />
          </mxGeometry>
        </mxCell>
        <mxCell id="ZojpfDY3j0kffaaoSL6z-197" value="ay" style="edgeLabel;html=1;align=center;verticalAlign=middle;resizable=0;points=[];" vertex="1" connectable="0" parent="ZojpfDY3j0kffaaoSL6z-196">
          <mxGeometry x="-0.2651" y="1" relative="1" as="geometry">
            <mxPoint x="8" y="-9" as="offset" />
          </mxGeometry>
        </mxCell>
        <mxCell id="2NKQgYieQlxQsSznahe5-154" value="" style="endArrow=classic;html=1;rounded=0;exitX=1;exitY=0.25;exitDx=0;exitDy=0;edgeStyle=orthogonalEdgeStyle;" parent="1" source="2NKQgYieQlxQsSznahe5-156" edge="1">
          <mxGeometry width="50" height="50" relative="1" as="geometry">
            <mxPoint x="520" y="830" as="sourcePoint" />
            <mxPoint x="550" y="785" as="targetPoint" />
          </mxGeometry>
        </mxCell>
        <mxCell id="2NKQgYieQlxQsSznahe5-155" value="W" style="edgeLabel;html=1;align=center;verticalAlign=middle;resizable=0;points=[];" parent="2NKQgYieQlxQsSznahe5-154" vertex="1" connectable="0">
          <mxGeometry x="-0.2651" y="1" relative="1" as="geometry">
            <mxPoint y="-9" as="offset" />
          </mxGeometry>
        </mxCell>
        <mxCell id="2NKQgYieQlxQsSznahe5-156" value="drtSs&lt;br&gt;(drivetrain)" style="rounded=0;whiteSpace=wrap;html=1;" parent="1" vertex="1">
          <mxGeometry x="390" y="770" width="100" height="60" as="geometry" />
        </mxCell>
        <mxCell id="2NKQgYieQlxQsSznahe5-157" value="" style="endArrow=classic;html=1;rounded=0;entryX=0;entryY=0.25;entryDx=0;entryDy=0;edgeStyle=orthogonalEdgeStyle;" parent="1" target="2NKQgYieQlxQsSznahe5-156" edge="1">
          <mxGeometry width="50" height="50" relative="1" as="geometry">
            <mxPoint x="330" y="785" as="sourcePoint" />
            <mxPoint x="360" y="800" as="targetPoint" />
          </mxGeometry>
        </mxCell>
        <mxCell id="2NKQgYieQlxQsSznahe5-158" value="Mrot" style="edgeLabel;html=1;align=center;verticalAlign=middle;resizable=0;points=[];" parent="2NKQgYieQlxQsSznahe5-157" vertex="1" connectable="0">
          <mxGeometry x="-0.1063" y="2" relative="1" as="geometry">
            <mxPoint x="-17" y="-8" as="offset" />
          </mxGeometry>
        </mxCell>
        <mxCell id="2NKQgYieQlxQsSznahe5-160" value="" style="endArrow=classic;html=1;rounded=0;exitX=1;exitY=0.25;exitDx=0;exitDy=0;edgeStyle=orthogonalEdgeStyle;" parent="1" source="2NKQgYieQlxQsSznahe5-162" edge="1">
          <mxGeometry width="50" height="50" relative="1" as="geometry">
            <mxPoint x="520" y="760" as="sourcePoint" />
            <mxPoint x="550" y="715" as="targetPoint" />
          </mxGeometry>
        </mxCell>
        <mxCell id="2NKQgYieQlxQsSznahe5-161" value="W" style="edgeLabel;html=1;align=center;verticalAlign=middle;resizable=0;points=[];" parent="2NKQgYieQlxQsSznahe5-160" vertex="1" connectable="0">
          <mxGeometry x="-0.2651" y="1" relative="1" as="geometry">
            <mxPoint y="-9" as="offset" />
          </mxGeometry>
        </mxCell>
        <mxCell id="2NKQgYieQlxQsSznahe5-162" value="drt&lt;br&gt;(drivetrain)" style="rounded=0;whiteSpace=wrap;html=1;" parent="1" vertex="1">
          <mxGeometry x="390" y="700" width="100" height="60" as="geometry" />
        </mxCell>
        <mxCell id="2NKQgYieQlxQsSznahe5-163" value="" style="endArrow=classic;html=1;rounded=0;entryX=0;entryY=0.25;entryDx=0;entryDy=0;edgeStyle=orthogonalEdgeStyle;" parent="1" target="2NKQgYieQlxQsSznahe5-162" edge="1">
          <mxGeometry width="50" height="50" relative="1" as="geometry">
            <mxPoint x="330" y="715" as="sourcePoint" />
            <mxPoint x="360" y="730" as="targetPoint" />
          </mxGeometry>
        </mxCell>
        <mxCell id="2NKQgYieQlxQsSznahe5-164" value="Mrot&amp;nbsp;" style="edgeLabel;html=1;align=center;verticalAlign=middle;resizable=0;points=[];" parent="2NKQgYieQlxQsSznahe5-163" vertex="1" connectable="0">
          <mxGeometry x="-0.1063" y="2" relative="1" as="geometry">
            <mxPoint x="-7" y="-8" as="offset" />
          </mxGeometry>
        </mxCell>
        <mxCell id="ZojpfDY3j0kffaaoSL6z-198" value="" style="endArrow=classic;html=1;rounded=0;exitX=1;exitY=0.75;exitDx=0;exitDy=0;edgeStyle=orthogonalEdgeStyle;" edge="1" parent="1" source="2NKQgYieQlxQsSznahe5-162">
          <mxGeometry width="50" height="50" relative="1" as="geometry">
            <mxPoint x="500" y="740" as="sourcePoint" />
            <mxPoint x="550" y="745" as="targetPoint" />
          </mxGeometry>
        </mxCell>
        <mxCell id="ZojpfDY3j0kffaaoSL6z-199" value="w" style="edgeLabel;html=1;align=center;verticalAlign=middle;resizable=0;points=[];" vertex="1" connectable="0" parent="ZojpfDY3j0kffaaoSL6z-198">
          <mxGeometry x="-0.2651" y="1" relative="1" as="geometry">
            <mxPoint y="-9" as="offset" />
          </mxGeometry>
        </mxCell>
        <mxCell id="ZojpfDY3j0kffaaoSL6z-200" value="" style="endArrow=classic;html=1;rounded=0;exitX=1;exitY=0.75;exitDx=0;exitDy=0;edgeStyle=orthogonalEdgeStyle;" edge="1" parent="1" source="2NKQgYieQlxQsSznahe5-156">
          <mxGeometry width="50" height="50" relative="1" as="geometry">
            <mxPoint x="500" y="810" as="sourcePoint" />
            <mxPoint x="550" y="815" as="targetPoint" />
          </mxGeometry>
        </mxCell>
        <mxCell id="ZojpfDY3j0kffaaoSL6z-201" value="w" style="edgeLabel;html=1;align=center;verticalAlign=middle;resizable=0;points=[];" vertex="1" connectable="0" parent="ZojpfDY3j0kffaaoSL6z-200">
          <mxGeometry x="-0.2651" y="1" relative="1" as="geometry">
            <mxPoint y="-9" as="offset" />
          </mxGeometry>
        </mxCell>
        <mxCell id="ZojpfDY3j0kffaaoSL6z-202" value="" style="endArrow=classic;html=1;rounded=0;entryX=0;entryY=0.75;entryDx=0;entryDy=0;edgeStyle=orthogonalEdgeStyle;" edge="1" parent="1" target="2NKQgYieQlxQsSznahe5-162">
          <mxGeometry width="50" height="50" relative="1" as="geometry">
            <mxPoint x="330" y="745" as="sourcePoint" />
            <mxPoint x="400" y="725" as="targetPoint" />
          </mxGeometry>
        </mxCell>
        <mxCell id="ZojpfDY3j0kffaaoSL6z-203" value="Mgen" style="edgeLabel;html=1;align=center;verticalAlign=middle;resizable=0;points=[];" vertex="1" connectable="0" parent="ZojpfDY3j0kffaaoSL6z-202">
          <mxGeometry x="-0.1063" y="2" relative="1" as="geometry">
            <mxPoint x="-7" y="-8" as="offset" />
          </mxGeometry>
        </mxCell>
        <mxCell id="ZojpfDY3j0kffaaoSL6z-204" value="" style="endArrow=classic;html=1;rounded=0;entryX=0;entryY=0.75;entryDx=0;entryDy=0;edgeStyle=orthogonalEdgeStyle;" edge="1" parent="1" target="2NKQgYieQlxQsSznahe5-156">
          <mxGeometry width="50" height="50" relative="1" as="geometry">
            <mxPoint x="330" y="815" as="sourcePoint" />
            <mxPoint x="380" y="820" as="targetPoint" />
          </mxGeometry>
        </mxCell>
        <mxCell id="ZojpfDY3j0kffaaoSL6z-205" value="vWy" style="edgeLabel;html=1;align=center;verticalAlign=middle;resizable=0;points=[];" vertex="1" connectable="0" parent="ZojpfDY3j0kffaaoSL6z-204">
          <mxGeometry x="-0.1063" y="2" relative="1" as="geometry">
            <mxPoint x="-17" y="-8" as="offset" />
          </mxGeometry>
        </mxCell>
        <mxCell id="ZojpfDY3j0kffaaoSL6z-206" value="" style="endArrow=classic;html=1;rounded=0;entryX=0;entryY=0.5;entryDx=0;entryDy=0;edgeStyle=orthogonalEdgeStyle;" edge="1" parent="1" target="2NKQgYieQlxQsSznahe5-156">
          <mxGeometry width="50" height="50" relative="1" as="geometry">
            <mxPoint x="330" y="800" as="sourcePoint" />
            <mxPoint x="390" y="830" as="targetPoint" />
          </mxGeometry>
        </mxCell>
        <mxCell id="ZojpfDY3j0kffaaoSL6z-207" value="Mgen" style="edgeLabel;html=1;align=center;verticalAlign=middle;resizable=0;points=[];" vertex="1" connectable="0" parent="ZojpfDY3j0kffaaoSL6z-206">
          <mxGeometry x="-0.1063" y="2" relative="1" as="geometry">
            <mxPoint x="-17" y="-8" as="offset" />
          </mxGeometry>
        </mxCell>
        <mxCell id="ZojpfDY3j0kffaaoSL6z-210" value="" style="endArrow=classic;html=1;rounded=0;entryX=0;entryY=0.75;entryDx=0;entryDy=0;edgeStyle=orthogonalEdgeStyle;" edge="1" parent="1" target="2NKQgYieQlxQsSznahe5-108">
          <mxGeometry width="50" height="50" relative="1" as="geometry">
            <mxPoint x="20" y="615" as="sourcePoint" />
            <mxPoint x="60.00000000000023" y="640" as="targetPoint" />
          </mxGeometry>
        </mxCell>
        <mxCell id="ZojpfDY3j0kffaaoSL6z-211" value="W" style="edgeLabel;html=1;align=center;verticalAlign=middle;resizable=0;points=[];" vertex="1" connectable="0" parent="ZojpfDY3j0kffaaoSL6z-210">
          <mxGeometry x="-0.1063" y="2" relative="1" as="geometry">
            <mxPoint y="-8" as="offset" />
          </mxGeometry>
        </mxCell>
        <mxCell id="ZojpfDY3j0kffaaoSL6z-212" value="" style="group" vertex="1" connectable="0" parent="1">
          <mxGeometry x="20" y="640" width="220" height="60" as="geometry" />
        </mxCell>
        <mxCell id="ZojpfDY3j0kffaaoSL6z-213" value="" style="endArrow=classic;html=1;rounded=0;exitX=1;exitY=0.5;exitDx=0;exitDy=0;edgeStyle=orthogonalEdgeStyle;" edge="1" parent="ZojpfDY3j0kffaaoSL6z-212" source="ZojpfDY3j0kffaaoSL6z-215">
          <mxGeometry width="50" height="50" relative="1" as="geometry">
            <mxPoint x="190" y="60" as="sourcePoint" />
            <mxPoint x="220" y="30" as="targetPoint" />
          </mxGeometry>
        </mxCell>
        <mxCell id="ZojpfDY3j0kffaaoSL6z-214" value="Mrot" style="edgeLabel;html=1;align=center;verticalAlign=middle;resizable=0;points=[];" vertex="1" connectable="0" parent="ZojpfDY3j0kffaaoSL6z-213">
          <mxGeometry x="-0.2651" y="1" relative="1" as="geometry">
            <mxPoint y="-9" as="offset" />
          </mxGeometry>
        </mxCell>
        <mxCell id="ZojpfDY3j0kffaaoSL6z-215" value="aeroFLC" style="rounded=0;whiteSpace=wrap;html=1;" vertex="1" parent="ZojpfDY3j0kffaaoSL6z-212">
          <mxGeometry x="60" width="100" height="60" as="geometry" />
        </mxCell>
        <mxCell id="ZojpfDY3j0kffaaoSL6z-216" value="" style="endArrow=classic;html=1;rounded=0;entryX=0;entryY=0.25;entryDx=0;entryDy=0;edgeStyle=orthogonalEdgeStyle;" edge="1" parent="ZojpfDY3j0kffaaoSL6z-212" target="ZojpfDY3j0kffaaoSL6z-215">
          <mxGeometry width="50" height="50" relative="1" as="geometry">
            <mxPoint y="15" as="sourcePoint" />
            <mxPoint x="30" y="30" as="targetPoint" />
          </mxGeometry>
        </mxCell>
        <mxCell id="ZojpfDY3j0kffaaoSL6z-217" value="th" style="edgeLabel;html=1;align=center;verticalAlign=middle;resizable=0;points=[];" vertex="1" connectable="0" parent="ZojpfDY3j0kffaaoSL6z-216">
          <mxGeometry x="-0.1063" y="2" relative="1" as="geometry">
            <mxPoint y="-8" as="offset" />
          </mxGeometry>
        </mxCell>
        <mxCell id="ZojpfDY3j0kffaaoSL6z-218" value="" style="endArrow=classic;html=1;rounded=0;entryX=0;entryY=0.5;entryDx=0;entryDy=0;edgeStyle=orthogonalEdgeStyle;" edge="1" parent="ZojpfDY3j0kffaaoSL6z-212" target="ZojpfDY3j0kffaaoSL6z-215">
          <mxGeometry width="50" height="50" relative="1" as="geometry">
            <mxPoint y="30" as="sourcePoint" />
            <mxPoint x="50.00000000000023" y="50" as="targetPoint" />
          </mxGeometry>
        </mxCell>
        <mxCell id="ZojpfDY3j0kffaaoSL6z-219" value="v" style="edgeLabel;html=1;align=center;verticalAlign=middle;resizable=0;points=[];" vertex="1" connectable="0" parent="ZojpfDY3j0kffaaoSL6z-218">
          <mxGeometry x="-0.1063" y="2" relative="1" as="geometry">
            <mxPoint y="-8" as="offset" />
          </mxGeometry>
        </mxCell>
        <mxCell id="ZojpfDY3j0kffaaoSL6z-220" value="" style="endArrow=classic;html=1;rounded=0;entryX=0;entryY=0.833;entryDx=0;entryDy=0;edgeStyle=orthogonalEdgeStyle;entryPerimeter=0;" edge="1" parent="1" target="ZojpfDY3j0kffaaoSL6z-215">
          <mxGeometry width="50" height="50" relative="1" as="geometry">
            <mxPoint x="20" y="690" as="sourcePoint" />
            <mxPoint x="60" y="719.6" as="targetPoint" />
          </mxGeometry>
        </mxCell>
        <mxCell id="ZojpfDY3j0kffaaoSL6z-221" value="W" style="edgeLabel;html=1;align=center;verticalAlign=middle;resizable=0;points=[];" vertex="1" connectable="0" parent="ZojpfDY3j0kffaaoSL6z-220">
          <mxGeometry x="-0.1063" y="2" relative="1" as="geometry">
            <mxPoint y="-8" as="offset" />
          </mxGeometry>
        </mxCell>
        <mxCell id="ZojpfDY3j0kffaaoSL6z-230" value="" style="group" vertex="1" connectable="0" parent="1">
          <mxGeometry x="20" y="720" width="220" height="60" as="geometry" />
        </mxCell>
        <mxCell id="ZojpfDY3j0kffaaoSL6z-231" value="" style="endArrow=classic;html=1;rounded=0;exitX=1;exitY=0.5;exitDx=0;exitDy=0;edgeStyle=orthogonalEdgeStyle;" edge="1" parent="ZojpfDY3j0kffaaoSL6z-230" source="ZojpfDY3j0kffaaoSL6z-233">
          <mxGeometry width="50" height="50" relative="1" as="geometry">
            <mxPoint x="190" y="60" as="sourcePoint" />
            <mxPoint x="220" y="30" as="targetPoint" />
          </mxGeometry>
        </mxCell>
        <mxCell id="ZojpfDY3j0kffaaoSL6z-232" value="Mrot" style="edgeLabel;html=1;align=center;verticalAlign=middle;resizable=0;points=[];" vertex="1" connectable="0" parent="ZojpfDY3j0kffaaoSL6z-231">
          <mxGeometry x="-0.2651" y="1" relative="1" as="geometry">
            <mxPoint y="-9" as="offset" />
          </mxGeometry>
        </mxCell>
        <mxCell id="ZojpfDY3j0kffaaoSL6z-233" value="aeroPLC" style="rounded=0;whiteSpace=wrap;html=1;" vertex="1" parent="ZojpfDY3j0kffaaoSL6z-230">
          <mxGeometry x="60" width="100" height="60" as="geometry" />
        </mxCell>
        <mxCell id="ZojpfDY3j0kffaaoSL6z-234" value="" style="endArrow=classic;html=1;rounded=0;entryX=0;entryY=0.25;entryDx=0;entryDy=0;edgeStyle=orthogonalEdgeStyle;" edge="1" parent="ZojpfDY3j0kffaaoSL6z-230" target="ZojpfDY3j0kffaaoSL6z-233">
          <mxGeometry width="50" height="50" relative="1" as="geometry">
            <mxPoint y="15" as="sourcePoint" />
            <mxPoint x="30" y="30" as="targetPoint" />
          </mxGeometry>
        </mxCell>
        <mxCell id="ZojpfDY3j0kffaaoSL6z-235" value="th" style="edgeLabel;html=1;align=center;verticalAlign=middle;resizable=0;points=[];" vertex="1" connectable="0" parent="ZojpfDY3j0kffaaoSL6z-234">
          <mxGeometry x="-0.1063" y="2" relative="1" as="geometry">
            <mxPoint y="-8" as="offset" />
          </mxGeometry>
        </mxCell>
        <mxCell id="ZojpfDY3j0kffaaoSL6z-236" value="" style="endArrow=classic;html=1;rounded=0;entryX=0;entryY=0.5;entryDx=0;entryDy=0;edgeStyle=orthogonalEdgeStyle;" edge="1" parent="ZojpfDY3j0kffaaoSL6z-230" target="ZojpfDY3j0kffaaoSL6z-233">
          <mxGeometry width="50" height="50" relative="1" as="geometry">
            <mxPoint y="30" as="sourcePoint" />
            <mxPoint x="50.00000000000023" y="50" as="targetPoint" />
          </mxGeometry>
        </mxCell>
        <mxCell id="ZojpfDY3j0kffaaoSL6z-237" value="v" style="edgeLabel;html=1;align=center;verticalAlign=middle;resizable=0;points=[];" vertex="1" connectable="0" parent="ZojpfDY3j0kffaaoSL6z-236">
          <mxGeometry x="-0.1063" y="2" relative="1" as="geometry">
            <mxPoint y="-8" as="offset" />
          </mxGeometry>
        </mxCell>
        <mxCell id="ZojpfDY3j0kffaaoSL6z-238" value="" style="endArrow=classic;html=1;rounded=0;entryX=0;entryY=0.833;entryDx=0;entryDy=0;edgeStyle=orthogonalEdgeStyle;entryPerimeter=0;" edge="1" parent="1" target="ZojpfDY3j0kffaaoSL6z-233">
          <mxGeometry width="50" height="50" relative="1" as="geometry">
            <mxPoint x="20" y="770" as="sourcePoint" />
            <mxPoint x="60" y="799.6" as="targetPoint" />
          </mxGeometry>
        </mxCell>
        <mxCell id="ZojpfDY3j0kffaaoSL6z-239" value="W" style="edgeLabel;html=1;align=center;verticalAlign=middle;resizable=0;points=[];" vertex="1" connectable="0" parent="ZojpfDY3j0kffaaoSL6z-238">
          <mxGeometry x="-0.1063" y="2" relative="1" as="geometry">
            <mxPoint y="-8" as="offset" />
          </mxGeometry>
        </mxCell>
        <mxCell id="ZojpfDY3j0kffaaoSL6z-280" value="" style="endArrow=classic;html=1;rounded=0;exitX=1;exitY=0.5;exitDx=0;exitDy=0;edgeStyle=orthogonalEdgeStyle;" edge="1" parent="1" source="ZojpfDY3j0kffaaoSL6z-282">
          <mxGeometry width="50" height="50" relative="1" as="geometry">
            <mxPoint x="440" y="1190" as="sourcePoint" />
            <mxPoint x="470" y="1160" as="targetPoint" />
          </mxGeometry>
        </mxCell>
        <mxCell id="ZojpfDY3j0kffaaoSL6z-281" value="thFatd" style="edgeLabel;html=1;align=center;verticalAlign=middle;resizable=0;points=[];" vertex="1" connectable="0" parent="ZojpfDY3j0kffaaoSL6z-280">
          <mxGeometry x="-0.2651" y="1" relative="1" as="geometry">
            <mxPoint y="-9" as="offset" />
          </mxGeometry>
        </mxCell>
        <mxCell id="ZojpfDY3j0kffaaoSL6z-282" value="FATD" style="rounded=0;whiteSpace=wrap;html=1;" vertex="1" parent="1">
          <mxGeometry x="310" y="1130" width="100" height="60" as="geometry" />
        </mxCell>
        <mxCell id="ZojpfDY3j0kffaaoSL6z-283" value="" style="endArrow=classic;html=1;rounded=0;entryX=0;entryY=0.25;entryDx=0;entryDy=0;edgeStyle=orthogonalEdgeStyle;" edge="1" parent="1" target="ZojpfDY3j0kffaaoSL6z-282">
          <mxGeometry width="50" height="50" relative="1" as="geometry">
            <mxPoint x="250" y="1145" as="sourcePoint" />
            <mxPoint x="280" y="1160" as="targetPoint" />
          </mxGeometry>
        </mxCell>
        <mxCell id="ZojpfDY3j0kffaaoSL6z-284" value="py" style="edgeLabel;html=1;align=center;verticalAlign=middle;resizable=0;points=[];" vertex="1" connectable="0" parent="ZojpfDY3j0kffaaoSL6z-283">
          <mxGeometry x="-0.1063" y="2" relative="1" as="geometry">
            <mxPoint y="-8" as="offset" />
          </mxGeometry>
        </mxCell>
        <mxCell id="ZojpfDY3j0kffaaoSL6z-285" value="" style="endArrow=classic;html=1;rounded=0;entryX=0;entryY=0.75;entryDx=0;entryDy=0;edgeStyle=orthogonalEdgeStyle;" edge="1" parent="1" target="ZojpfDY3j0kffaaoSL6z-282">
          <mxGeometry width="50" height="50" relative="1" as="geometry">
            <mxPoint x="250" y="1175" as="sourcePoint" />
            <mxPoint x="300" y="1170" as="targetPoint" />
          </mxGeometry>
        </mxCell>
        <mxCell id="ZojpfDY3j0kffaaoSL6z-286" value="vy" style="edgeLabel;html=1;align=center;verticalAlign=middle;resizable=0;points=[];" vertex="1" connectable="0" parent="ZojpfDY3j0kffaaoSL6z-285">
          <mxGeometry x="-0.1063" y="2" relative="1" as="geometry">
            <mxPoint y="-8" as="offset" />
          </mxGeometry>
        </mxCell>
        <mxCell id="ZojpfDY3j0kffaaoSL6z-287" value="" style="endArrow=classic;html=1;rounded=0;exitX=1;exitY=0.5;exitDx=0;exitDy=0;edgeStyle=orthogonalEdgeStyle;entryX=0;entryY=0.5;entryDx=0;entryDy=0;" edge="1" parent="1" source="ZojpfDY3j0kffaaoSL6z-289" target="ZojpfDY3j0kffaaoSL6z-379">
          <mxGeometry width="50" height="50" relative="1" as="geometry">
            <mxPoint x="828" y="1280" as="sourcePoint" />
            <mxPoint x="858" y="1250" as="targetPoint" />
          </mxGeometry>
        </mxCell>
        <mxCell id="ZojpfDY3j0kffaaoSL6z-289" value="rotWind" style="rounded=0;whiteSpace=wrap;html=1;" vertex="1" parent="1">
          <mxGeometry x="608" y="1235" width="100" height="60" as="geometry" />
        </mxCell>
        <mxCell id="ZojpfDY3j0kffaaoSL6z-290" value="" style="endArrow=classic;html=1;rounded=0;entryX=0;entryY=0.25;entryDx=0;entryDy=0;edgeStyle=orthogonalEdgeStyle;" edge="1" parent="1" target="ZojpfDY3j0kffaaoSL6z-289">
          <mxGeometry width="50" height="50" relative="1" as="geometry">
            <mxPoint x="578" y="1220" as="sourcePoint" />
            <mxPoint x="668" y="1250" as="targetPoint" />
            <Array as="points">
              <mxPoint x="578" y="1220" />
              <mxPoint x="578" y="1250" />
            </Array>
          </mxGeometry>
        </mxCell>
        <mxCell id="ZojpfDY3j0kffaaoSL6z-291" value="vfree" style="edgeLabel;html=1;align=center;verticalAlign=middle;resizable=0;points=[];" vertex="1" connectable="0" parent="ZojpfDY3j0kffaaoSL6z-290">
          <mxGeometry x="-0.1063" y="2" relative="1" as="geometry">
            <mxPoint x="-2" y="-37" as="offset" />
          </mxGeometry>
        </mxCell>
        <mxCell id="ZojpfDY3j0kffaaoSL6z-294" value="" style="endArrow=classic;html=1;rounded=0;exitX=1;exitY=0.25;exitDx=0;exitDy=0;edgeStyle=orthogonalEdgeStyle;" edge="1" parent="1" source="ZojpfDY3j0kffaaoSL6z-296">
          <mxGeometry width="50" height="50" relative="1" as="geometry">
            <mxPoint x="728" y="1560" as="sourcePoint" />
            <mxPoint x="758" y="1515" as="targetPoint" />
          </mxGeometry>
        </mxCell>
        <mxCell id="ZojpfDY3j0kffaaoSL6z-295" value="pWy" style="edgeLabel;html=1;align=center;verticalAlign=middle;resizable=0;points=[];" vertex="1" connectable="0" parent="ZojpfDY3j0kffaaoSL6z-294">
          <mxGeometry x="-0.2651" y="1" relative="1" as="geometry">
            <mxPoint x="8" y="-9" as="offset" />
          </mxGeometry>
        </mxCell>
        <mxCell id="ZojpfDY3j0kffaaoSL6z-296" value="towSprMassSs&lt;br&gt;(side-side)" style="rounded=0;whiteSpace=wrap;html=1;" vertex="1" parent="1">
          <mxGeometry x="598" y="1500" width="100" height="60" as="geometry" />
        </mxCell>
        <mxCell id="ZojpfDY3j0kffaaoSL6z-299" value="" style="endArrow=classic;html=1;rounded=0;entryX=0;entryY=0.75;entryDx=0;entryDy=0;edgeStyle=orthogonalEdgeStyle;exitX=1;exitY=0.5;exitDx=0;exitDy=0;jumpStyle=arc;" edge="1" parent="1" target="ZojpfDY3j0kffaaoSL6z-296">
          <mxGeometry width="50" height="50" relative="1" as="geometry">
            <mxPoint x="438" y="1645" as="sourcePoint" />
            <mxPoint x="598" y="1550" as="targetPoint" />
            <Array as="points">
              <mxPoint x="538" y="1645" />
              <mxPoint x="538" y="1545" />
            </Array>
          </mxGeometry>
        </mxCell>
        <mxCell id="ZojpfDY3j0kffaaoSL6z-301" value="" style="endArrow=classic;html=1;rounded=0;exitX=1;exitY=0.75;exitDx=0;exitDy=0;edgeStyle=orthogonalEdgeStyle;entryX=0;entryY=0.75;entryDx=0;entryDy=0;jumpStyle=arc;" edge="1" parent="1" source="ZojpfDY3j0kffaaoSL6z-296" target="ZojpfDY3j0kffaaoSL6z-314">
          <mxGeometry width="50" height="50" relative="1" as="geometry">
            <mxPoint x="708" y="1525" as="sourcePoint" />
            <mxPoint x="758" y="1545" as="targetPoint" />
            <Array as="points">
              <mxPoint x="708" y="1545" />
              <mxPoint x="708" y="1583" />
              <mxPoint x="558" y="1583" />
              <mxPoint x="558" y="1660" />
            </Array>
          </mxGeometry>
        </mxCell>
        <mxCell id="ZojpfDY3j0kffaaoSL6z-302" value="vWy" style="edgeLabel;html=1;align=center;verticalAlign=middle;resizable=0;points=[];" vertex="1" connectable="0" parent="ZojpfDY3j0kffaaoSL6z-301">
          <mxGeometry x="-0.2651" y="1" relative="1" as="geometry">
            <mxPoint x="-6" y="-9" as="offset" />
          </mxGeometry>
        </mxCell>
        <mxCell id="ZojpfDY3j0kffaaoSL6z-303" value="" style="endArrow=classic;html=1;rounded=0;exitX=1;exitY=0.25;exitDx=0;exitDy=0;edgeStyle=orthogonalEdgeStyle;" edge="1" parent="1" source="ZojpfDY3j0kffaaoSL6z-305">
          <mxGeometry width="50" height="50" relative="1" as="geometry">
            <mxPoint x="528" y="1310" as="sourcePoint" />
            <mxPoint x="558" y="1265" as="targetPoint" />
          </mxGeometry>
        </mxCell>
        <mxCell id="ZojpfDY3j0kffaaoSL6z-304" value="py" style="edgeLabel;html=1;align=center;verticalAlign=middle;resizable=0;points=[];" vertex="1" connectable="0" parent="ZojpfDY3j0kffaaoSL6z-303">
          <mxGeometry x="-0.2651" y="1" relative="1" as="geometry">
            <mxPoint x="8" y="-9" as="offset" />
          </mxGeometry>
        </mxCell>
        <mxCell id="ZojpfDY3j0kffaaoSL6z-305" value="towSprMassFa&lt;br&gt;Fore-aft" style="rounded=0;whiteSpace=wrap;html=1;" vertex="1" parent="1">
          <mxGeometry x="398" y="1250" width="100" height="60" as="geometry" />
        </mxCell>
        <mxCell id="ZojpfDY3j0kffaaoSL6z-308" value="" style="endArrow=classic;html=1;rounded=0;exitX=1;exitY=0.5;exitDx=0;exitDy=0;edgeStyle=orthogonalEdgeStyle;entryX=0;entryY=0.75;entryDx=0;entryDy=0;" edge="1" parent="1" source="ZojpfDY3j0kffaaoSL6z-305" target="ZojpfDY3j0kffaaoSL6z-289">
          <mxGeometry width="50" height="50" relative="1" as="geometry">
            <mxPoint x="508" y="1275" as="sourcePoint" />
            <mxPoint x="558" y="1280" as="targetPoint" />
          </mxGeometry>
        </mxCell>
        <mxCell id="ZojpfDY3j0kffaaoSL6z-310" value="" style="endArrow=classic;html=1;rounded=0;exitX=1;exitY=0.75;exitDx=0;exitDy=0;edgeStyle=orthogonalEdgeStyle;" edge="1" parent="1" source="ZojpfDY3j0kffaaoSL6z-305">
          <mxGeometry width="50" height="50" relative="1" as="geometry">
            <mxPoint x="508" y="1290" as="sourcePoint" />
            <mxPoint x="558" y="1295" as="targetPoint" />
          </mxGeometry>
        </mxCell>
        <mxCell id="ZojpfDY3j0kffaaoSL6z-311" value="ay" style="edgeLabel;html=1;align=center;verticalAlign=middle;resizable=0;points=[];" vertex="1" connectable="0" parent="ZojpfDY3j0kffaaoSL6z-310">
          <mxGeometry x="-0.2651" y="1" relative="1" as="geometry">
            <mxPoint x="8" y="16" as="offset" />
          </mxGeometry>
        </mxCell>
        <mxCell id="ZojpfDY3j0kffaaoSL6z-312" value="" style="endArrow=classic;html=1;rounded=0;exitX=1;exitY=0.25;exitDx=0;exitDy=0;edgeStyle=orthogonalEdgeStyle;entryX=0;entryY=0.5;entryDx=0;entryDy=0;" edge="1" parent="1" source="ZojpfDY3j0kffaaoSL6z-314" target="ZojpfDY3j0kffaaoSL6z-374">
          <mxGeometry width="50" height="50" relative="1" as="geometry">
            <mxPoint x="728" y="1675" as="sourcePoint" />
            <mxPoint x="758" y="1630.5" as="targetPoint" />
          </mxGeometry>
        </mxCell>
        <mxCell id="ZojpfDY3j0kffaaoSL6z-313" value="W" style="edgeLabel;html=1;align=center;verticalAlign=middle;resizable=0;points=[];" vertex="1" connectable="0" parent="ZojpfDY3j0kffaaoSL6z-312">
          <mxGeometry x="-0.2651" y="1" relative="1" as="geometry">
            <mxPoint y="-9" as="offset" />
          </mxGeometry>
        </mxCell>
        <mxCell id="ZojpfDY3j0kffaaoSL6z-314" value="drtSs&lt;br&gt;(drivetrain)" style="rounded=0;whiteSpace=wrap;html=1;" vertex="1" parent="1">
          <mxGeometry x="598" y="1615" width="100" height="60" as="geometry" />
        </mxCell>
        <mxCell id="ZojpfDY3j0kffaaoSL6z-324" value="" style="endArrow=classic;html=1;rounded=0;exitX=1;exitY=0.75;exitDx=0;exitDy=0;edgeStyle=orthogonalEdgeStyle;entryX=0;entryY=0.5;entryDx=0;entryDy=0;" edge="1" parent="1" source="ZojpfDY3j0kffaaoSL6z-314" target="ZojpfDY3j0kffaaoSL6z-376">
          <mxGeometry width="50" height="50" relative="1" as="geometry">
            <mxPoint x="708" y="1655" as="sourcePoint" />
            <mxPoint x="758" y="1660.5" as="targetPoint" />
          </mxGeometry>
        </mxCell>
        <mxCell id="ZojpfDY3j0kffaaoSL6z-325" value="w" style="edgeLabel;html=1;align=center;verticalAlign=middle;resizable=0;points=[];" vertex="1" connectable="0" parent="ZojpfDY3j0kffaaoSL6z-324">
          <mxGeometry x="-0.2651" y="1" relative="1" as="geometry">
            <mxPoint y="-9" as="offset" />
          </mxGeometry>
        </mxCell>
        <mxCell id="ZojpfDY3j0kffaaoSL6z-326" value="" style="endArrow=classic;html=1;rounded=0;entryX=0;entryY=0.5;entryDx=0;entryDy=0;edgeStyle=orthogonalEdgeStyle;exitX=1;exitY=0.5;exitDx=0;exitDy=0;jumpStyle=arc;" edge="1" parent="1" target="ZojpfDY3j0kffaaoSL6z-314" source="ZojpfDY3j0kffaaoSL6z-384">
          <mxGeometry width="50" height="50" relative="1" as="geometry">
            <mxPoint x="438" y="1645" as="sourcePoint" />
            <mxPoint x="598" y="1635" as="targetPoint" />
          </mxGeometry>
        </mxCell>
        <mxCell id="ZojpfDY3j0kffaaoSL6z-327" value="Mgen" style="edgeLabel;html=1;align=center;verticalAlign=middle;resizable=0;points=[];" vertex="1" connectable="0" parent="ZojpfDY3j0kffaaoSL6z-326">
          <mxGeometry x="-0.1063" y="2" relative="1" as="geometry">
            <mxPoint x="-7" y="-8" as="offset" />
          </mxGeometry>
        </mxCell>
        <mxCell id="ZojpfDY3j0kffaaoSL6z-332" value="" style="endArrow=classic;html=1;rounded=0;entryX=0;entryY=0.75;entryDx=0;entryDy=0;edgeStyle=orthogonalEdgeStyle;exitX=1;exitY=0.5;exitDx=0;exitDy=0;" edge="1" parent="1" target="ZojpfDY3j0kffaaoSL6z-249" source="ZojpfDY3j0kffaaoSL6z-378">
          <mxGeometry width="50" height="50" relative="1" as="geometry">
            <mxPoint x="158" y="1295" as="sourcePoint" />
            <mxPoint x="198.00000000000023" y="1320" as="targetPoint" />
            <Array as="points">
              <mxPoint x="148" y="1320" />
              <mxPoint x="148" y="1295" />
            </Array>
          </mxGeometry>
        </mxCell>
        <mxCell id="ZojpfDY3j0kffaaoSL6z-342" value="" style="endArrow=classic;html=1;rounded=0;entryX=0;entryY=0.75;entryDx=0;entryDy=0;edgeStyle=orthogonalEdgeStyle;exitX=1;exitY=0.5;exitDx=0;exitDy=0;" edge="1" parent="1" target="ZojpfDY3j0kffaaoSL6z-337" source="ZojpfDY3j0kffaaoSL6z-403">
          <mxGeometry width="50" height="50" relative="1" as="geometry">
            <mxPoint x="278" y="1580" as="sourcePoint" />
            <mxPoint x="318" y="1609.6" as="targetPoint" />
          </mxGeometry>
        </mxCell>
        <mxCell id="ZojpfDY3j0kffaaoSL6z-273" value="" style="endArrow=classic;html=1;rounded=0;exitX=1;exitY=0.5;exitDx=0;exitDy=0;edgeStyle=orthogonalEdgeStyle;entryX=0;entryY=0.5;entryDx=0;entryDy=0;" edge="1" parent="1" source="ZojpfDY3j0kffaaoSL6z-275" target="ZojpfDY3j0kffaaoSL6z-398">
          <mxGeometry width="50" height="50" relative="1" as="geometry">
            <mxPoint x="628" y="1455" as="sourcePoint" />
            <mxPoint x="658" y="1425" as="targetPoint" />
          </mxGeometry>
        </mxCell>
        <mxCell id="ZojpfDY3j0kffaaoSL6z-274" value="th" style="edgeLabel;html=1;align=center;verticalAlign=middle;resizable=0;points=[];" vertex="1" connectable="0" parent="ZojpfDY3j0kffaaoSL6z-273">
          <mxGeometry x="-0.2651" y="1" relative="1" as="geometry">
            <mxPoint y="-9" as="offset" />
          </mxGeometry>
        </mxCell>
        <mxCell id="ZojpfDY3j0kffaaoSL6z-275" value="pit&lt;br&gt;(Pitch controller)" style="rounded=0;whiteSpace=wrap;html=1;" vertex="1" parent="1">
          <mxGeometry x="498" y="1395" width="100" height="60" as="geometry" />
        </mxCell>
        <mxCell id="ZojpfDY3j0kffaaoSL6z-278" value="" style="endArrow=classic;html=1;rounded=0;entryX=0;entryY=0.75;entryDx=0;entryDy=0;edgeStyle=orthogonalEdgeStyle;" edge="1" parent="1" target="ZojpfDY3j0kffaaoSL6z-275">
          <mxGeometry width="50" height="50" relative="1" as="geometry">
            <mxPoint x="438" y="1440" as="sourcePoint" />
            <mxPoint x="488" y="1454.6" as="targetPoint" />
          </mxGeometry>
        </mxCell>
        <mxCell id="ZojpfDY3j0kffaaoSL6z-279" value="thFatd" style="edgeLabel;html=1;align=center;verticalAlign=middle;resizable=0;points=[];" vertex="1" connectable="0" parent="ZojpfDY3j0kffaaoSL6z-278">
          <mxGeometry x="-0.1063" y="2" relative="1" as="geometry">
            <mxPoint x="-7" y="-8" as="offset" />
          </mxGeometry>
        </mxCell>
        <mxCell id="ZojpfDY3j0kffaaoSL6z-261" value="" style="endArrow=classic;html=1;rounded=0;exitX=1;exitY=0.5;exitDx=0;exitDy=0;edgeStyle=orthogonalEdgeStyle;entryX=0;entryY=0.25;entryDx=0;entryDy=0;" edge="1" parent="1" source="ZojpfDY3j0kffaaoSL6z-263" target="ZojpfDY3j0kffaaoSL6z-275">
          <mxGeometry width="50" height="50" relative="1" as="geometry">
            <mxPoint x="398" y="1435" as="sourcePoint" />
            <mxPoint x="428" y="1405" as="targetPoint" />
          </mxGeometry>
        </mxCell>
        <mxCell id="ZojpfDY3j0kffaaoSL6z-262" value="thRef" style="edgeLabel;html=1;align=center;verticalAlign=middle;resizable=0;points=[];" vertex="1" connectable="0" parent="ZojpfDY3j0kffaaoSL6z-261">
          <mxGeometry x="-0.2651" y="1" relative="1" as="geometry">
            <mxPoint y="-9" as="offset" />
          </mxGeometry>
        </mxCell>
        <mxCell id="ZojpfDY3j0kffaaoSL6z-263" value="FLC" style="rounded=0;whiteSpace=wrap;html=1;" vertex="1" parent="1">
          <mxGeometry x="268" y="1380" width="100" height="60" as="geometry" />
        </mxCell>
        <mxCell id="ZojpfDY3j0kffaaoSL6z-264" value="" style="endArrow=classic;html=1;rounded=0;entryX=0;entryY=0.5;entryDx=0;entryDy=0;edgeStyle=orthogonalEdgeStyle;" edge="1" parent="1" target="ZojpfDY3j0kffaaoSL6z-263">
          <mxGeometry width="50" height="50" relative="1" as="geometry">
            <mxPoint x="208" y="1410" as="sourcePoint" />
            <mxPoint x="238" y="1410" as="targetPoint" />
          </mxGeometry>
        </mxCell>
        <mxCell id="ZojpfDY3j0kffaaoSL6z-265" value="e" style="edgeLabel;html=1;align=center;verticalAlign=middle;resizable=0;points=[];" vertex="1" connectable="0" parent="ZojpfDY3j0kffaaoSL6z-264">
          <mxGeometry x="-0.1063" y="2" relative="1" as="geometry">
            <mxPoint y="-8" as="offset" />
          </mxGeometry>
        </mxCell>
        <mxCell id="ZojpfDY3j0kffaaoSL6z-247" value="" style="endArrow=classic;html=1;rounded=0;exitX=1;exitY=0.5;exitDx=0;exitDy=0;edgeStyle=orthogonalEdgeStyle;entryX=0;entryY=0.5;entryDx=0;entryDy=0;" edge="1" parent="1" source="ZojpfDY3j0kffaaoSL6z-249" target="ZojpfDY3j0kffaaoSL6z-305">
          <mxGeometry width="50" height="50" relative="1" as="geometry">
            <mxPoint x="288" y="1310" as="sourcePoint" />
            <mxPoint x="318" y="1280" as="targetPoint" />
          </mxGeometry>
        </mxCell>
        <mxCell id="ZojpfDY3j0kffaaoSL6z-248" value="Trot" style="edgeLabel;html=1;align=center;verticalAlign=middle;resizable=0;points=[];" vertex="1" connectable="0" parent="ZojpfDY3j0kffaaoSL6z-247">
          <mxGeometry x="-0.2651" y="1" relative="1" as="geometry">
            <mxPoint y="-9" as="offset" />
          </mxGeometry>
        </mxCell>
        <mxCell id="ZojpfDY3j0kffaaoSL6z-335" value="" style="endArrow=classic;html=1;rounded=0;exitX=1;exitY=0.5;exitDx=0;exitDy=0;edgeStyle=orthogonalEdgeStyle;entryX=0;entryY=0.25;entryDx=0;entryDy=0;" edge="1" parent="1" source="ZojpfDY3j0kffaaoSL6z-337" target="ZojpfDY3j0kffaaoSL6z-296">
          <mxGeometry width="50" height="50" relative="1" as="geometry">
            <mxPoint x="468" y="1580" as="sourcePoint" />
            <mxPoint x="528" y="1570" as="targetPoint" />
          </mxGeometry>
        </mxCell>
        <mxCell id="ZojpfDY3j0kffaaoSL6z-336" value="Mrot" style="edgeLabel;html=1;align=center;verticalAlign=middle;resizable=0;points=[];" vertex="1" connectable="0" parent="ZojpfDY3j0kffaaoSL6z-335">
          <mxGeometry x="-0.2651" y="1" relative="1" as="geometry">
            <mxPoint x="-12" y="-9" as="offset" />
          </mxGeometry>
        </mxCell>
        <mxCell id="ZojpfDY3j0kffaaoSL6z-337" value="aeroFLC" style="rounded=0;whiteSpace=wrap;html=1;" vertex="1" parent="1">
          <mxGeometry x="338" y="1530" width="100" height="60" as="geometry" />
        </mxCell>
        <mxCell id="ZojpfDY3j0kffaaoSL6z-338" value="" style="endArrow=classic;html=1;rounded=0;entryX=0;entryY=0.25;entryDx=0;entryDy=0;edgeStyle=orthogonalEdgeStyle;exitX=1;exitY=0.5;exitDx=0;exitDy=0;" edge="1" parent="1" target="ZojpfDY3j0kffaaoSL6z-337" source="ZojpfDY3j0kffaaoSL6z-275">
          <mxGeometry width="50" height="50" relative="1" as="geometry">
            <mxPoint x="278" y="1535" as="sourcePoint" />
            <mxPoint x="308" y="1550" as="targetPoint" />
            <Array as="points">
              <mxPoint x="608" y="1425" />
              <mxPoint x="608" y="1480" />
              <mxPoint x="308" y="1480" />
              <mxPoint x="308" y="1545" />
            </Array>
          </mxGeometry>
        </mxCell>
        <mxCell id="ZojpfDY3j0kffaaoSL6z-339" value="th" style="edgeLabel;html=1;align=center;verticalAlign=middle;resizable=0;points=[];" vertex="1" connectable="0" parent="ZojpfDY3j0kffaaoSL6z-338">
          <mxGeometry x="-0.1063" y="2" relative="1" as="geometry">
            <mxPoint x="-174" y="18" as="offset" />
          </mxGeometry>
        </mxCell>
        <mxCell id="ZojpfDY3j0kffaaoSL6z-340" value="" style="endArrow=classic;html=1;rounded=0;edgeStyle=orthogonalEdgeStyle;exitX=1;exitY=0.5;exitDx=0;exitDy=0;entryX=0;entryY=0.5;entryDx=0;entryDy=0;" edge="1" parent="1" target="ZojpfDY3j0kffaaoSL6z-337" source="ZojpfDY3j0kffaaoSL6z-404">
          <mxGeometry width="50" height="50" relative="1" as="geometry">
            <mxPoint x="278" y="1560" as="sourcePoint" />
            <mxPoint x="318" y="1560" as="targetPoint" />
          </mxGeometry>
        </mxCell>
        <mxCell id="ZojpfDY3j0kffaaoSL6z-355" value="" style="endArrow=classic;html=1;rounded=0;exitX=1;exitY=0.5;exitDx=0;exitDy=0;edgeStyle=orthogonalEdgeStyle;entryX=0;entryY=0.25;entryDx=0;entryDy=0;jumpStyle=arc;" edge="1" parent="1" source="ZojpfDY3j0kffaaoSL6z-337" target="ZojpfDY3j0kffaaoSL6z-314">
          <mxGeometry width="50" height="50" relative="1" as="geometry">
            <mxPoint x="448" y="1560" as="sourcePoint" />
            <mxPoint x="598" y="1605" as="targetPoint" />
            <Array as="points">
              <mxPoint x="518" y="1560" />
              <mxPoint x="518" y="1630" />
            </Array>
          </mxGeometry>
        </mxCell>
        <mxCell id="ZojpfDY3j0kffaaoSL6z-374" value="W" style="rounded=1;whiteSpace=wrap;html=1;arcSize=50;" vertex="1" parent="1">
          <mxGeometry x="758" y="1620" width="40" height="20" as="geometry" />
        </mxCell>
        <mxCell id="ZojpfDY3j0kffaaoSL6z-376" value="w" style="rounded=1;whiteSpace=wrap;html=1;arcSize=50;" vertex="1" parent="1">
          <mxGeometry x="758" y="1650" width="40" height="20" as="geometry" />
        </mxCell>
        <mxCell id="ZojpfDY3j0kffaaoSL6z-378" value="W" style="rounded=1;whiteSpace=wrap;html=1;arcSize=50;" vertex="1" parent="1">
          <mxGeometry x="98" y="1310" width="40" height="20" as="geometry" />
        </mxCell>
        <mxCell id="ZojpfDY3j0kffaaoSL6z-249" value="aeroThr" style="rounded=0;whiteSpace=wrap;html=1;" vertex="1" parent="1">
          <mxGeometry x="218" y="1250" width="100" height="60" as="geometry" />
        </mxCell>
        <mxCell id="ZojpfDY3j0kffaaoSL6z-250" value="" style="endArrow=classic;html=1;rounded=0;entryX=0;entryY=0.25;entryDx=0;entryDy=0;edgeStyle=orthogonalEdgeStyle;exitX=1;exitY=0.5;exitDx=0;exitDy=0;" edge="1" parent="1" target="ZojpfDY3j0kffaaoSL6z-249" source="ZojpfDY3j0kffaaoSL6z-400">
          <mxGeometry width="50" height="50" relative="1" as="geometry">
            <mxPoint x="158" y="1265" as="sourcePoint" />
            <mxPoint x="188" y="1280" as="targetPoint" />
            <Array as="points">
              <mxPoint x="148" y="1240" />
              <mxPoint x="148" y="1265" />
            </Array>
          </mxGeometry>
        </mxCell>
        <mxCell id="ZojpfDY3j0kffaaoSL6z-252" value="" style="endArrow=classic;html=1;rounded=0;entryX=0;entryY=0.5;entryDx=0;entryDy=0;edgeStyle=orthogonalEdgeStyle;exitX=1;exitY=0.5;exitDx=0;exitDy=0;" edge="1" parent="1" target="ZojpfDY3j0kffaaoSL6z-249" source="ZojpfDY3j0kffaaoSL6z-401">
          <mxGeometry width="50" height="50" relative="1" as="geometry">
            <mxPoint x="158" y="1280" as="sourcePoint" />
            <mxPoint x="208.00000000000023" y="1300" as="targetPoint" />
          </mxGeometry>
        </mxCell>
        <mxCell id="ZojpfDY3j0kffaaoSL6z-379" value="v" style="rounded=1;whiteSpace=wrap;html=1;arcSize=50;" vertex="1" parent="1">
          <mxGeometry x="778" y="1255" width="40" height="20" as="geometry" />
        </mxCell>
        <mxCell id="2NKQgYieQlxQsSznahe5-127" value="" style="endArrow=classic;html=1;rounded=0;exitX=1;exitY=0.5;exitDx=0;exitDy=0;edgeStyle=orthogonalEdgeStyle;" parent="1" source="2NKQgYieQlxQsSznahe5-129" edge="1">
          <mxGeometry width="50" height="50" relative="1" as="geometry">
            <mxPoint x="520" y="680" as="sourcePoint" />
            <mxPoint x="550" y="650" as="targetPoint" />
          </mxGeometry>
        </mxCell>
        <mxCell id="2NKQgYieQlxQsSznahe5-128" value="Mgen" style="edgeLabel;html=1;align=center;verticalAlign=middle;resizable=0;points=[];" parent="2NKQgYieQlxQsSznahe5-127" vertex="1" connectable="0">
          <mxGeometry x="-0.2651" y="1" relative="1" as="geometry">
            <mxPoint y="-9" as="offset" />
          </mxGeometry>
        </mxCell>
        <mxCell id="2NKQgYieQlxQsSznahe5-129" value="gen" style="rounded=0;whiteSpace=wrap;html=1;" parent="1" vertex="1">
          <mxGeometry x="390" y="620" width="100" height="60" as="geometry" />
        </mxCell>
        <mxCell id="2NKQgYieQlxQsSznahe5-130" value="" style="endArrow=classic;html=1;rounded=0;entryX=0;entryY=0.25;entryDx=0;entryDy=0;edgeStyle=orthogonalEdgeStyle;" parent="1" target="2NKQgYieQlxQsSznahe5-129" edge="1">
          <mxGeometry width="50" height="50" relative="1" as="geometry">
            <mxPoint x="330" y="635" as="sourcePoint" />
            <mxPoint x="360" y="650" as="targetPoint" />
          </mxGeometry>
        </mxCell>
        <mxCell id="2NKQgYieQlxQsSznahe5-131" value="Pconv" style="edgeLabel;html=1;align=center;verticalAlign=middle;resizable=0;points=[];" parent="2NKQgYieQlxQsSznahe5-130" vertex="1" connectable="0">
          <mxGeometry x="-0.1063" y="2" relative="1" as="geometry">
            <mxPoint y="-8" as="offset" />
          </mxGeometry>
        </mxCell>
        <mxCell id="ZojpfDY3j0kffaaoSL6z-380" value="" style="endArrow=classic;html=1;rounded=0;entryX=0;entryY=0.75;entryDx=0;entryDy=0;edgeStyle=orthogonalEdgeStyle;" edge="1" parent="1" target="2NKQgYieQlxQsSznahe5-129">
          <mxGeometry width="50" height="50" relative="1" as="geometry">
            <mxPoint x="330" y="665" as="sourcePoint" />
            <mxPoint x="400" y="660" as="targetPoint" />
          </mxGeometry>
        </mxCell>
        <mxCell id="ZojpfDY3j0kffaaoSL6z-381" value="W" style="edgeLabel;html=1;align=center;verticalAlign=middle;resizable=0;points=[];" vertex="1" connectable="0" parent="ZojpfDY3j0kffaaoSL6z-380">
          <mxGeometry x="-0.1063" y="2" relative="1" as="geometry">
            <mxPoint y="-8" as="offset" />
          </mxGeometry>
        </mxCell>
        <mxCell id="ZojpfDY3j0kffaaoSL6z-384" value="gen" style="rounded=0;whiteSpace=wrap;html=1;" vertex="1" parent="1">
          <mxGeometry x="338" y="1615" width="100" height="60" as="geometry" />
        </mxCell>
        <mxCell id="ZojpfDY3j0kffaaoSL6z-385" value="" style="endArrow=classic;html=1;rounded=0;entryX=0;entryY=0.75;entryDx=0;entryDy=0;edgeStyle=orthogonalEdgeStyle;exitX=1;exitY=0.5;exitDx=0;exitDy=0;" edge="1" parent="1" target="ZojpfDY3j0kffaaoSL6z-384" source="ZojpfDY3j0kffaaoSL6z-243">
          <mxGeometry width="50" height="50" relative="1" as="geometry">
            <mxPoint x="278" y="1660" as="sourcePoint" />
            <mxPoint x="308" y="1645" as="targetPoint" />
          </mxGeometry>
        </mxCell>
        <mxCell id="ZojpfDY3j0kffaaoSL6z-386" value="Pconv" style="edgeLabel;html=1;align=center;verticalAlign=middle;resizable=0;points=[];" vertex="1" connectable="0" parent="ZojpfDY3j0kffaaoSL6z-385">
          <mxGeometry x="-0.1063" y="2" relative="1" as="geometry">
            <mxPoint y="-8" as="offset" />
          </mxGeometry>
        </mxCell>
        <mxCell id="ZojpfDY3j0kffaaoSL6z-387" value="" style="endArrow=classic;html=1;rounded=0;edgeStyle=orthogonalEdgeStyle;exitX=1;exitY=0.5;exitDx=0;exitDy=0;entryX=0;entryY=0.25;entryDx=0;entryDy=0;" edge="1" parent="1" target="ZojpfDY3j0kffaaoSL6z-384" source="ZojpfDY3j0kffaaoSL6z-403">
          <mxGeometry width="50" height="50" relative="1" as="geometry">
            <mxPoint x="278" y="1660" as="sourcePoint" />
            <mxPoint x="258" y="1630" as="targetPoint" />
          </mxGeometry>
        </mxCell>
        <mxCell id="ZojpfDY3j0kffaaoSL6z-390" value="" style="ellipse;whiteSpace=wrap;html=1;aspect=fixed;" vertex="1" parent="1">
          <mxGeometry x="188" y="1400" width="20" height="20" as="geometry" />
        </mxCell>
        <mxCell id="ZojpfDY3j0kffaaoSL6z-391" value="" style="endArrow=classic;html=1;rounded=0;entryX=0.445;entryY=1.098;entryDx=0;entryDy=0;edgeStyle=orthogonalEdgeStyle;entryPerimeter=0;exitX=1;exitY=0.5;exitDx=0;exitDy=0;" edge="1" parent="1" source="ZojpfDY3j0kffaaoSL6z-405" target="ZojpfDY3j0kffaaoSL6z-390">
          <mxGeometry width="50" height="50" relative="1" as="geometry">
            <mxPoint x="138" y="1440" as="sourcePoint" />
            <mxPoint x="278" y="1420" as="targetPoint" />
          </mxGeometry>
        </mxCell>
        <mxCell id="ZojpfDY3j0kffaaoSL6z-392" value="w" style="edgeLabel;html=1;align=center;verticalAlign=middle;resizable=0;points=[];" vertex="1" connectable="0" parent="ZojpfDY3j0kffaaoSL6z-391">
          <mxGeometry x="-0.1063" y="2" relative="1" as="geometry">
            <mxPoint y="-8" as="offset" />
          </mxGeometry>
        </mxCell>
        <mxCell id="ZojpfDY3j0kffaaoSL6z-393" value="" style="endArrow=classic;html=1;rounded=0;entryX=0.5;entryY=0;entryDx=0;entryDy=0;edgeStyle=orthogonalEdgeStyle;" edge="1" parent="1" target="ZojpfDY3j0kffaaoSL6z-390">
          <mxGeometry width="50" height="50" relative="1" as="geometry">
            <mxPoint x="138" y="1380" as="sourcePoint" />
            <mxPoint x="288" y="1430" as="targetPoint" />
          </mxGeometry>
        </mxCell>
        <mxCell id="ZojpfDY3j0kffaaoSL6z-394" value="wRef" style="edgeLabel;html=1;align=center;verticalAlign=middle;resizable=0;points=[];" vertex="1" connectable="0" parent="ZojpfDY3j0kffaaoSL6z-393">
          <mxGeometry x="-0.1063" y="2" relative="1" as="geometry">
            <mxPoint y="-8" as="offset" />
          </mxGeometry>
        </mxCell>
        <mxCell id="ZojpfDY3j0kffaaoSL6z-395" value="+" style="text;html=1;strokeColor=none;fillColor=none;align=center;verticalAlign=middle;whiteSpace=wrap;rounded=0;" vertex="1" parent="1">
          <mxGeometry x="183" y="1390" width="10" height="10" as="geometry" />
        </mxCell>
        <mxCell id="ZojpfDY3j0kffaaoSL6z-397" value="-" style="text;html=1;strokeColor=none;fillColor=none;align=center;verticalAlign=middle;whiteSpace=wrap;rounded=0;" vertex="1" parent="1">
          <mxGeometry x="183" y="1420" width="10" height="10" as="geometry" />
        </mxCell>
        <mxCell id="ZojpfDY3j0kffaaoSL6z-398" value="th" style="rounded=1;whiteSpace=wrap;html=1;arcSize=50;" vertex="1" parent="1">
          <mxGeometry x="658" y="1415" width="40" height="20" as="geometry" />
        </mxCell>
        <mxCell id="ZojpfDY3j0kffaaoSL6z-400" value="th" style="rounded=1;whiteSpace=wrap;html=1;arcSize=50;" vertex="1" parent="1">
          <mxGeometry x="98" y="1230" width="40" height="20" as="geometry" />
        </mxCell>
        <mxCell id="ZojpfDY3j0kffaaoSL6z-401" value="v" style="rounded=1;whiteSpace=wrap;html=1;arcSize=50;" vertex="1" parent="1">
          <mxGeometry x="53" y="1270" width="40" height="20" as="geometry" />
        </mxCell>
        <mxCell id="ZojpfDY3j0kffaaoSL6z-403" value="W" style="rounded=1;whiteSpace=wrap;html=1;arcSize=50;" vertex="1" parent="1">
          <mxGeometry x="198" y="1595" width="40" height="20" as="geometry" />
        </mxCell>
        <mxCell id="ZojpfDY3j0kffaaoSL6z-404" value="v" style="rounded=1;whiteSpace=wrap;html=1;arcSize=50;" vertex="1" parent="1">
          <mxGeometry x="198" y="1550" width="40" height="20" as="geometry" />
        </mxCell>
        <mxCell id="ZojpfDY3j0kffaaoSL6z-243" value="cnvUn&lt;br&gt;(converter direct feedthrough)" style="rounded=0;whiteSpace=wrap;html=1;" vertex="1" parent="1">
          <mxGeometry x="93.00000000000011" y="1630" width="100" height="60" as="geometry" />
        </mxCell>
        <mxCell id="ZojpfDY3j0kffaaoSL6z-244" value="" style="endArrow=classic;html=1;rounded=0;entryX=0;entryY=0.5;entryDx=0;entryDy=0;edgeStyle=orthogonalEdgeStyle;" edge="1" parent="1" target="ZojpfDY3j0kffaaoSL6z-243">
          <mxGeometry width="50" height="50" relative="1" as="geometry">
            <mxPoint x="33.000000000000114" y="1660" as="sourcePoint" />
            <mxPoint x="63.000000000000114" y="1660" as="targetPoint" />
          </mxGeometry>
        </mxCell>
        <mxCell id="ZojpfDY3j0kffaaoSL6z-245" value="Pref" style="edgeLabel;html=1;align=center;verticalAlign=middle;resizable=0;points=[];" vertex="1" connectable="0" parent="ZojpfDY3j0kffaaoSL6z-244">
          <mxGeometry x="-0.1063" y="2" relative="1" as="geometry">
            <mxPoint y="-8" as="offset" />
          </mxGeometry>
        </mxCell>
        <mxCell id="ZojpfDY3j0kffaaoSL6z-405" value="w" style="rounded=1;whiteSpace=wrap;html=1;arcSize=50;" vertex="1" parent="1">
          <mxGeometry x="93" y="1430" width="40" height="20" as="geometry" />
        </mxCell>
      </root>
    </mxGraphModel>
  </diagram>
</mxfile>
